<?xml version="1.0" encoding="UTF-8"?>
<svg version="1.1" xmlns="http://www.w3.org/2000/svg" width="500" height="258">
<path d="M0 0 C3.125 0.5 3.125 0.5 5.09204102 3.02734375 C7.36943112 6.70551194 9.0834267 10.58991034 10.77734375 14.5625 C11.1138797 15.33858109 11.45041565 16.11466217 11.79714966 16.91426086 C12.89110045 19.44050339 13.97680304 21.97020072 15.0625 24.5 C15.8222728 26.2582998 16.58261372 28.01635422 17.34350586 29.77416992 C18.87896975 33.32384316 20.41124064 36.87486519 21.94042969 40.42724609 C24.74345021 46.93872018 27.56115589 53.44380239 30.38031006 59.94830322 C31.17957644 61.79420062 31.97697383 63.64089531 32.77392578 65.48779297 C35.04606326 70.74525247 37.33382601 75.99254052 39.703125 81.20703125 C40.085896 82.05160889 40.46866699 82.89618652 40.86303711 83.76635742 C41.54964802 85.27359396 42.24256211 86.7779854 42.94360352 88.27856445 C44.49425506 91.67857782 45.125 93.6800837 45.125 97.5 C38.195 97.5 31.265 97.5 24.125 97.5 C20.125 89.5 20.125 89.5 19.125 86.5 C14.25032925 86.47518766 9.37569568 86.4570869 4.50097656 86.44506836 C2.84439452 86.44005527 1.18781687 86.43324311 -0.46875 86.42456055 C-2.85678189 86.41236207 -5.24475502 86.40674133 -7.6328125 86.40234375 C-8.36742706 86.39718246 -9.10204163 86.39202118 -9.85891724 86.38670349 C-13.97278822 86.38625977 -17.83950609 86.69789701 -21.875 87.5 C-22.865 90.8 -23.855 94.1 -24.875 97.5 C-30.815 97.5 -36.755 97.5 -42.875 97.5 C-43.50202736 88.72161702 -42.03722193 82.51790715 -36.3359375 75.64453125 C-24.78398213 64.55793901 -3.6462328 67.32615786 11.125 67.5 C10.82207031 66.72285645 10.51914063 65.94571289 10.20703125 65.14501953 C9.08618226 62.26486873 7.96834121 59.38357421 6.85253906 56.50146484 C6.13058153 54.63939585 5.40514762 52.77867593 4.6796875 50.91796875 C4.22851562 49.75136719 3.77734375 48.58476563 3.3125 47.3828125 C2.89355469 46.30402832 2.47460938 45.22524414 2.04296875 44.11376953 C1.125 41.5 1.125 41.5 1.125 39.5 C-1.49644728 41.80804885 -2.65884259 43.927267 -3.91796875 47.16796875 C-4.39399536 48.3748938 -4.39399536 48.3748938 -4.87963867 49.60620117 C-5.46515503 51.13144409 -5.46515503 51.13144409 -6.0625 52.6875 C-7.9496875 57.5446875 -7.9496875 57.5446875 -9.875 62.5 C-16.805 63.49 -23.735 64.48 -30.875 65.5 C-31.875 63.5 -31.875 63.5 -31.15332031 61.28295898 C-30.75725586 60.36329346 -30.36119141 59.44362793 -29.953125 58.49609375 C-29.50984863 57.45710938 -29.06657227 56.418125 -28.60986328 55.34765625 C-28.1198584 54.22230469 -27.62985352 53.09695312 -27.125 51.9375 C-26.38032471 50.205 -26.38032471 50.205 -25.62060547 48.4375 C-24.0478063 44.78761518 -22.46265686 41.14344403 -20.875 37.5 C-20.37194336 36.34000488 -19.86888672 35.18000977 -19.35058594 33.98486328 C-17.90536271 30.65438013 -16.45445961 27.32645899 -15 24 C-14.56075195 22.99380615 -14.12150391 21.9876123 -13.66894531 20.95092773 C-4.80831893 0.83622938 -4.80831893 0.83622938 0 0 Z " fill="#0B75BC" transform="translate(117.875,72.5)"/>
<path d="M0 0 C7.33336661 4.88891107 11.42844379 11.27122714 13.8125 19.6875 C15 26 15 26 15 39 C-0.51 39 -16.02 39 -32 39 C-32 34.38 -32 29.76 -32 25 C-22.43 25 -12.86 25 -3 25 C-6.06295398 16.68222288 -6.06295398 16.68222288 -12 12 C-18.3340841 10.23435862 -24.20651247 10.86747476 -30 14 C-33.39990799 16.97087198 -35.76912624 20.2809367 -36.16113281 24.89770508 C-36.20675176 27.20278787 -36.23525662 29.50700389 -36.25 31.8125 C-36.270625 32.60720703 -36.29125 33.40191406 -36.3125 34.22070312 C-36.3457464 39.24506485 -35.77214783 42.64282027 -33 47 C-27.51292194 52.19828448 -22.30364018 53.47998376 -14.921875 53.41015625 C-10.78229549 52.82906554 -7.70831938 51.08854156 -4.19140625 48.8984375 C-2 48 -2 48 0.05078125 48.5625 C2.43580127 50.32139252 3.98413702 52.24787676 5.75 54.625 C6.36359375 55.44226563 6.9771875 56.25953125 7.609375 57.1015625 C8.06828125 57.72804687 8.5271875 58.35453125 9 59 C2.62151277 66.17579813 -5.49513563 69.52403431 -15.04296875 70.22265625 C-26.44353694 70.53005727 -35.84795649 67.98278752 -45 61 C-52.01998157 53.99508277 -55.47901357 44.64385953 -56.03125 34.85546875 C-55.91293186 24.04414838 -52.79492734 15.63817776 -46.8125 6.75 C-35.00554901 -4.79457431 -14.60433411 -8.85611221 0 0 Z " fill="#133149" transform="translate(332,101)"/>
<path d="M0 0 C8.50588135 8.69919684 11.07490261 18.02806339 10.98046875 29.83203125 C10.98001053 30.7718132 10.97955231 31.71159515 10.9790802 32.67985535 C10.97607339 34.65401482 10.96823453 36.62817225 10.95581055 38.60229492 C10.93745315 41.63273449 10.93530179 44.66286977 10.93554688 47.69335938 C10.93063484 49.61458599 10.9248079 51.53581053 10.91796875 53.45703125 C10.91685593 54.36532181 10.9157431 55.27361237 10.91459656 56.20942688 C10.90821671 57.04757431 10.90183685 57.88572174 10.89526367 58.74926758 C10.89145187 59.4876033 10.88764008 60.22593903 10.88371277 60.98664856 C10.75 62.8125 10.75 62.8125 9.75 64.8125 C3.81 64.8125 -2.13 64.8125 -8.25 64.8125 C-8.2593457 63.51103027 -8.26869141 62.20956055 -8.27832031 60.86865234 C-8.31828047 56.02651105 -8.38405657 51.18500107 -8.45751953 46.34326172 C-8.48569413 44.25024544 -8.50692609 42.15712346 -8.52099609 40.06396484 C-8.54247394 37.04990663 -8.58914988 34.03711463 -8.640625 31.0234375 C-8.64185364 30.09195892 -8.64308228 29.16048035 -8.64434814 28.20077515 C-8.7731161 22.45113449 -9.489798 19.22981184 -13.25 14.8125 C-16.22387055 12.71999834 -18.66147794 12.56482661 -22.25 12.625 C-23.095625 12.63144531 -23.94125 12.63789062 -24.8125 12.64453125 C-27.10662923 12.80262028 -29.07285204 13.0771078 -31.25 13.8125 C-32.48396041 15.5267289 -32.48396041 15.5267289 -33.25 17.8125 C-33.58950684 18.65312988 -33.92901367 19.49375977 -34.27880859 20.35986328 C-35.51459102 24.75313506 -35.60346427 28.82485609 -35.6640625 33.3671875 C-35.68342865 34.26873566 -35.7027948 35.17028381 -35.7227478 36.09915161 C-35.78224296 38.96183996 -35.82880817 41.82456918 -35.875 44.6875 C-35.91320747 46.63543363 -35.9522608 48.58335086 -35.9921875 50.53125 C-36.08950256 55.29157848 -36.16930924 60.0517449 -36.25 64.8125 C-42.19 64.8125 -48.13 64.8125 -54.25 64.8125 C-54.34944171 58.3021278 -54.42173898 51.79220517 -54.46972656 45.28125 C-54.48974747 43.06990855 -54.51697259 40.85861942 -54.55175781 38.64746094 C-54.60069627 35.45494622 -54.62306467 32.26313604 -54.640625 29.0703125 C-54.66127014 28.09385773 -54.68191528 27.11740295 -54.70318604 26.11135864 C-54.70631583 16.37134706 -51.80280916 8.65701935 -45.11328125 1.56640625 C-31.25240677 -11.48083199 -15.0817965 -10.15120918 0 0 Z " fill="#16334C" transform="translate(412.25,104.1875)"/>
<path d="M0 0 C6.27 0 12.54 0 19 0 C21.72900914 5.45801827 24.14614053 10.68152138 26.234375 16.3671875 C26.51726379 17.12798615 26.80015259 17.88878479 27.09161377 18.67263794 C27.68191059 20.26337235 28.2700045 21.85492586 28.85595703 23.44726562 C29.75610131 25.89156784 30.66465723 28.33262599 31.57421875 30.7734375 C32.14893413 32.32533701 32.72317046 33.87741402 33.296875 35.4296875 C33.70459137 36.5249324 33.70459137 36.5249324 34.12054443 37.64230347 C36 42.76914177 36 42.76914177 36 45 C38.458514 44.05935986 38.458514 44.05935986 39.3125 40.3125 C39.57160156 39.49007812 39.83070313 38.66765625 40.09765625 37.8203125 C41.08038812 34.74874363 42.1562513 31.72130788 43.25 28.6875 C44.80560934 24.36214721 46.34015299 20.03122469 47.84375 15.6875 C48.15924805 14.77782471 48.47474609 13.86814941 48.79980469 12.9309082 C49.42780114 11.11775401 50.05349445 9.30380029 50.67675781 7.48901367 C50.96389648 6.66119385 51.25103516 5.83337402 51.546875 4.98046875 C51.80307617 4.23692139 52.05927734 3.49337402 52.32324219 2.72729492 C53 1 53 1 54 0 C55.41570123 -0.08651611 56.835595 -0.10704904 58.25390625 -0.09765625 C59.53491211 -0.09282227 59.53491211 -0.09282227 60.84179688 -0.08789062 C61.73962891 -0.07951172 62.63746094 -0.07113281 63.5625 -0.0625 C64.46419922 -0.05798828 65.36589844 -0.05347656 66.29492188 -0.04882812 C68.53001314 -0.03700225 70.76497437 -0.0205222 73 0 C72.44091459 4.8654292 71.41948261 9.07026564 69.671875 13.640625 C69.32555023 14.55216339 69.32555023 14.55216339 68.972229 15.4821167 C68.48475962 16.76071484 67.99380304 18.03798848 67.49951172 19.31396484 C66.7583613 21.22840224 66.02866874 23.14689252 65.30078125 25.06640625 C62.77119902 31.69186192 60.05287674 38.18344573 57.06298828 44.61425781 C55.65536078 47.77349895 54.60884762 50.95381335 53.5625 54.25 C51.22450995 60.93415965 48.67570535 65.61575869 42.6875 69.5 C37.08701162 70.54195133 32.73582396 70.16315803 27.95703125 66.9609375 C24.37282005 63.76206442 22.85972714 60.09345072 21.125 55.6875 C20.77058838 54.82463379 20.41617676 53.96176758 20.05102539 53.07275391 C18.95841288 50.39666763 17.88420025 47.71374365 16.81341553 45.02886963 C15.54130838 41.85590395 14.24993879 38.6908079 12.96124268 35.52455139 C11.11249406 30.97772842 9.27491621 26.4264114 7.4375 21.875 C6.88657684 20.51427872 6.88657684 20.51427872 6.32452393 19.12606812 C5.27194032 16.52115174 4.22669379 13.91341357 3.18359375 11.3046875 C2.70144157 10.1153083 2.70144157 10.1153083 2.20954895 8.90190125 C0 3.34389874 0 3.34389874 0 0 Z " fill="#0C2B45" transform="translate(154,99)"/>
<path d="M0 0 C1.61736474 3.23472949 1.1441408 6.77944234 1.1418457 10.33349609 C1.14705734 11.62639809 1.14705734 11.62639809 1.15237427 12.94541931 C1.15973653 14.82081835 1.1650794 16.69622614 1.16866493 18.5716362 C1.17581781 21.53860334 1.19147508 24.50540389 1.21000671 27.47232056 C1.26253494 35.9092583 1.31047075 44.34610534 1.32592773 52.78320312 C1.33599657 57.94038617 1.36529306 63.09715134 1.40724754 68.25416946 C1.41957821 70.22133858 1.42467504 72.18856666 1.42244911 74.15577316 C1.42010206 76.90687569 1.44221657 79.6567747 1.4699707 82.40771484 C1.46336929 83.22240738 1.45676788 84.03709991 1.44996643 84.8764801 C1.50722179 88.32745666 1.71520092 90.57497799 3.65812683 93.47451782 C6.38998867 95.47675819 6.38998867 95.47675819 12 96 C12 100.95 12 105.9 12 111 C-4 111.57142857 -4 111.57142857 -11 107 C-11 106.34 -11 105.68 -11 105 C-11.66 105 -12.32 105 -13 105 C-13.66092719 103.52751571 -14.30280011 102.04647802 -14.9375 100.5625 C-15.29714844 99.73878906 -15.65679687 98.91507812 -16.02734375 98.06640625 C-18.1173832 91.47732604 -18.15180719 84.49485992 -18.1328125 77.62890625 C-18.13413177 76.84458221 -18.13545105 76.06025818 -18.1368103 75.25216675 C-18.13872312 72.68890421 -18.13237738 70.12575148 -18.125 67.5625 C-18.12411377 66.68191925 -18.12322754 65.8013385 -18.12231445 64.89407349 C-18.09819764 44.25541581 -17.59088492 23.62911278 -17 3 C-5.99112426 -0.17117498 -5.99112426 -0.17117498 0 0 Z " fill="#12314A" transform="translate(256,59)"/>
<path d="M0 0 C3.45674969 4.33780912 5.39275991 9.05637388 7.5625 14.125 C8.16094727 15.47464844 8.16094727 15.47464844 8.77148438 16.8515625 C12.66559445 25.90098023 14.31697983 34.17362531 14 44 C9.38 44 4.76 44 0 44 C-2 37.25 -2 37.25 -2 35 C-7.74747403 34.97524446 -13.49491689 34.95711362 -19.24243164 34.94506836 C-21.19686423 34.94004578 -23.15129306 34.93322651 -25.10571289 34.92456055 C-27.91814093 34.91240411 -30.73051919 34.90675087 -33.54296875 34.90234375 C-34.41398727 34.89718246 -35.2850058 34.89202118 -36.18241882 34.88670349 C-40.25625539 34.88632846 -44.02589439 34.97178467 -48 36 C-47.34 34.02 -46.68 32.04 -46 30 C-46.99 30.33 -47.98 30.66 -49 31 C-47.80445604 26.61633881 -46.6125059 23.84621677 -43 21 C-42.01 21 -41.02 21 -40 21 C-41.32 20.34 -42.64 19.68 -44 19 C-22.1739894 18.80243828 -22.1739894 18.80243828 -13.9609375 19.87890625 C-11.78459785 20.13603216 -11.78459785 20.13603216 -9 19 C-8.34 19 -7.68 19 -7 19 C-7.53625 18.67 -8.0725 18.34 -8.625 18 C-10 16 -10 16 -9.9296875 14.125 C-9.17949377 10.41495102 -8.75443285 8.52229966 -5.5625 6.3125 C-4.716875 5.879375 -3.87125 5.44625 -3 5 C-1.19203897 2.43389334 -1.19203897 2.43389334 0 0 Z " fill="#0C7AC2" transform="translate(143,123)"/>
<path d="M0 0 C0 0.66 0 1.32 0 2 C-0.73637695 2.01981934 -1.47275391 2.03963867 -2.23144531 2.06005859 C-5.57132056 2.15537828 -8.91057639 2.26502996 -12.25 2.375 C-13.40886719 2.4059375 -14.56773438 2.436875 -15.76171875 2.46875 C-16.87675781 2.50742188 -17.99179688 2.54609375 -19.140625 2.5859375 C-20.16704102 2.6173584 -21.19345703 2.6487793 -22.25097656 2.68115234 C-24.99661413 2.99960729 -26.63363184 3.62934188 -29 5 C-29.680625 5.2475 -30.36125 5.495 -31.0625 5.75 C-33.88058888 7.56812186 -34.68993743 9.9868561 -36 13 C-35.34 12.67 -34.68 12.34 -34 12 C-33.34 12.66 -32.68 13.32 -32 14 C-32.99 14 -33.98 14 -35 14 C-34.67 15.32 -34.34 16.64 -34 18 C-33.01 17.67 -32.02 17.34 -31 17 C-28.15823313 16.90275462 -25.34170467 16.86005342 -22.5 16.8671875 C-21.66791016 16.86623077 -20.83582031 16.86527405 -19.97851562 16.86428833 C-18.22005131 16.86360813 -16.46158448 16.86545128 -14.703125 16.86962891 C-12.01035934 16.87497942 -9.31776047 16.86967852 -6.625 16.86328125 C-4.9166663 16.86394206 -3.2083327 16.86522328 -1.5 16.8671875 C-0.69369141 16.86516327 0.11261719 16.86313904 0.94335938 16.86105347 C4.2190477 16.87480468 6.87044163 16.95681388 10 18 C11.03131735 20.60862624 11.43057449 23.24047635 12 26 C18.93 26.495 18.93 26.495 26 27 C25.01 18.585 25.01 18.585 24 10 C26.59038547 12.59038547 27.71326662 15.55843976 29.125 18.875 C29.40214844 19.50019531 29.67929688 20.12539062 29.96484375 20.76953125 C31.41221722 24.14198274 32 26.26277724 32 30 C25.07 30 18.14 30 11 30 C7 22 7 22 6 19 C1.12532925 18.97518766 -3.74930432 18.9570869 -8.62402344 18.94506836 C-10.28060548 18.94005527 -11.93718313 18.93324311 -13.59375 18.92456055 C-15.98178189 18.91236207 -18.36975502 18.90674133 -20.7578125 18.90234375 C-21.49242706 18.89718246 -22.22704163 18.89202118 -22.98391724 18.88670349 C-27.09778822 18.88625977 -30.96450609 19.19789701 -35 20 C-35.99 23.3 -36.98 26.6 -38 30 C-43.94 30 -49.88 30 -56 30 C-56.62702736 21.22161702 -55.16222193 15.01790715 -49.4609375 8.14453125 C-37.38054318 -3.44921211 -15.40621196 -0.13949286 0 0 Z " fill="#3AA7E5" transform="translate(131,140)"/>
<path d="M0 0 C5.87340686 0.05796125 10.26663624 0.61952644 14.9375 4.3125 C19.01748104 8.81094064 20.18947523 13.35580566 19.9375 19.3125 C19.04624413 23.78455377 17.69410106 26.59280631 14.375 29.75 C9.95492671 32.58338031 6.44843483 32.42919412 1.3125 32.375 C0.51070313 32.37048828 -0.29109375 32.36597656 -1.1171875 32.36132812 C-3.09899006 32.34953168 -5.08075433 32.33159605 -7.0625 32.3125 C-7.08715504 27.91593827 -7.10533842 23.5194128 -7.11743164 19.12280273 C-7.12247121 17.62605082 -7.12930287 16.12930384 -7.13793945 14.63256836 C-7.15002159 12.48550193 -7.15573191 10.33850038 -7.16015625 8.19140625 C-7.16539307 6.8979126 -7.17062988 5.60441895 -7.17602539 4.27172852 C-6.97788201 -0.89320887 -4.64926593 0.10141912 0 0 Z M-3.0625 5.3125 C-3.0625 12.5725 -3.0625 19.8325 -3.0625 27.3125 C5.20206095 28.15562875 5.20206095 28.15562875 12.625 25.25 C15.42869136 21.68855421 16.01547792 19.83521961 15.9375 15.3125 C14.75961383 11.1552547 13.83865207 8.99385888 10.375 6.375 C5.94482218 4.82032288 5.94482218 4.82032288 -3.0625 5.3125 Z " fill="#7E8F9A" transform="translate(380.0625,182.6875)"/>
<path d="M0 0 C1.04671875 -0.02578125 2.0934375 -0.0515625 3.171875 -0.078125 C7.58732621 0.39255762 10.15527556 2.15527556 13.25 5.25 C13.59507091 8.25704653 13.82512644 10.34644905 13.25 13.25 C10.75 16.0625 10.75 16.0625 8.25 18.25 C8.25 21.66334945 8.87655434 22.50227969 10.75 25.25 C13.25 28.91666667 13.25 28.91666667 13.25 32.25 C10.98828125 32.08984375 10.98828125 32.08984375 8.25 31.25 C6.23046875 28.81640625 6.23046875 28.81640625 4.4375 25.8125 C3.83292969 24.82378906 3.22835938 23.83507812 2.60546875 22.81640625 C1.25 20.25 1.25 20.25 1.25 18.25 C-0.07 18.25 -1.39 18.25 -2.75 18.25 C-2.75 22.87 -2.75 27.49 -2.75 32.25 C-4.07 32.25 -5.39 32.25 -6.75 32.25 C-6.77465504 27.85343827 -6.79283842 23.4569128 -6.80493164 19.06030273 C-6.80997121 17.56355082 -6.81680287 16.06680384 -6.82543945 14.57006836 C-6.83752159 12.42300193 -6.84323191 10.27600038 -6.84765625 8.12890625 C-6.85289307 6.8354126 -6.85812988 5.54191895 -6.86352539 4.20922852 C-6.66903869 -0.86039152 -4.56849648 0.06685605 0 0 Z M-2.75 5.25 C-2.75 7.89 -2.75 10.53 -2.75 13.25 C-0.38106495 14.43446753 0.6566826 14.25689755 3.25 13.9375 C4.301875 13.81955078 4.301875 13.81955078 5.375 13.69921875 C7.48120681 13.36739182 7.48120681 13.36739182 9.25 11.25 C8.96016731 7.94316534 8.96016731 7.94316534 7.25 5.25 C5.56391034 5.17794489 3.87499341 5.16613932 2.1875 5.1875 C1.26839844 5.19652344 0.34929687 5.20554688 -0.59765625 5.21484375 C-1.30792969 5.22644531 -2.01820313 5.23804688 -2.75 5.25 Z " fill="#8E9DAA" transform="translate(323.75,182.75)"/>
<path d="M0 0 C0.33 0.99 0.66 1.98 1 3 C2.32407669 3.68486725 3.65909241 4.34870203 5 5 C8.43736206 7.42637322 9.37361464 9.70673552 10.25 13.6875 C11.06702723 18.51082742 11.15750704 23.11728179 11 28 C6.38 28 1.76 28 -3 28 C-5 21.25 -5 21.25 -5 19 C-5.99 19 -6.98 19 -8 19 C-9.125 15.25 -9.125 15.25 -8 13 C-7.01 13 -6.02 13 -5 13 C-4.814375 12.0409375 -4.814375 12.0409375 -4.625 11.0625 C-4.41875 10.381875 -4.2125 9.70125 -4 9 C-3.34 8.67 -2.68 8.34 -2 8 C-2.04125 7.05125 -2.0825 6.1025 -2.125 5.125 C-2 2 -2 2 0 0 Z " fill="#0672BC" transform="translate(146,139)"/>
<path d="M0 0 C-2.96687001 1.64826111 -5.65626525 2.44271087 -9 3 C-9.33 3.99 -9.66 4.98 -10 6 C-10.99 6.33 -11.98 6.66 -13 7 C-13.33 7.99 -13.66 8.98 -14 10 C-14.66 10 -15.32 10 -16 10 C-15.938125 11.0828125 -15.938125 11.0828125 -15.875 12.1875 C-16.01096302 15.24666798 -16.81004784 17.20011257 -18 20 C-18.33 21.65 -18.66 23.3 -19 25 C-14.71 25 -10.42 25 -6 25 C-5.443125 23.081875 -5.443125 23.081875 -4.875 21.125 C-4.2421875 18.9453125 -4.2421875 18.9453125 -3 17 C1.97624853 14.82063862 6.47114178 14.72117657 11.79296875 14.76953125 C12.62081375 14.76998947 13.44865875 14.77044769 14.30158997 14.7709198 C16.04213911 14.7739277 17.78268592 14.78176993 19.52319336 14.79418945 C22.18938704 14.81251297 24.85523411 14.81469843 27.52148438 14.81445312 C29.21614884 14.81936653 30.91081095 14.82519407 32.60546875 14.83203125 C33.8008149 14.83370049 33.8008149 14.83370049 35.02030945 14.83540344 C38.26773416 14.86335569 40.89777416 14.96592472 44 16 C45.03131735 18.60862624 45.43057449 21.24047635 46 24 C52.93 24.495 52.93 24.495 60 25 C59.01 16.585 59.01 16.585 58 8 C60.59038547 10.59038547 61.71326662 13.55843976 63.125 16.875 C63.40214844 17.50019531 63.67929688 18.12539062 63.96484375 18.76953125 C65.41221722 22.14198274 66 24.26277724 66 28 C59.07 28 52.14 28 45 28 C41 20 41 20 40 17 C35.12532925 16.97518766 30.25069568 16.9570869 25.37597656 16.94506836 C23.71939452 16.94005527 22.06281687 16.93324311 20.40625 16.92456055 C18.01821811 16.91236207 15.63024498 16.90674133 13.2421875 16.90234375 C12.50757294 16.89718246 11.77295837 16.89202118 11.01608276 16.88670349 C6.90221178 16.88625977 3.03549391 17.19789701 -1 18 C-1.99 21.3 -2.98 24.6 -4 28 C-9.94 28 -15.88 28 -22 28 C-22.56879192 20.03691307 -21.56911661 14.64182365 -17 8 C-12.21447422 2.72393058 -7.29817273 -0.41703844 0 0 Z " fill="#81BAD8" transform="translate(97,142)"/>
<path d="M0 0 C0.99 0 1.98 0 3 0 C4.8612339 3.90980968 6.71231301 7.82421623 8.55419922 11.74316406 C9.18197272 13.07519766 9.81248495 14.40594413 10.44580078 15.73535156 C11.35655172 17.64835745 12.25729738 19.56580203 13.15625 21.484375 C13.70087891 22.63647461 14.24550781 23.78857422 14.80664062 24.97558594 C16 28 16 28 16 32 C14.140625 31.75390625 14.140625 31.75390625 12 31 C10.27056087 28.47523238 9.25011013 25.8127478 8 23 C4.04 23 0.08 23 -4 23 C-6.475 27.455 -6.475 27.455 -9 32 C-10.32 32 -11.64 32 -13 32 C-12.35057577 27.86454725 -10.99296423 24.41595212 -9.27734375 20.60546875 C-8.73916016 19.40341797 -8.20097656 18.20136719 -7.64648438 16.96289062 C-7.07693432 15.70437666 -6.50727145 14.44591375 -5.9375 13.1875 C-5.36346104 11.90971681 -4.78988839 10.63172403 -4.21679688 9.35351562 C-2.8157713 6.23358473 -1.41002202 3.11587282 0 0 Z M1 10 C-1.2013866 13.80427492 -1.2013866 13.80427492 -2 18 C0.64 18 3.28 18 6 18 C4.68 15.36 3.36 12.72 2 10 C1.67 10 1.34 10 1 10 Z " fill="#5B96BB" transform="translate(353,183)"/>
<path d="M0 0 C5.94 0 11.88 0 18 0 C18.33 0.99 18.66 1.98 19 3 C18.67 3.66 18.34 4.32 18 5 C13.38 5 8.76 5 4 5 C4 7.64 4 10.28 4 13 C6.97 13 9.94 13 13 13 C13 14.32 13 15.64 13 17 C10.03 17 7.06 17 4 17 C4 20.63 4 24.26 4 28 C8.62 28 13.24 28 18 28 C18 29.32 18 30.64 18 32 C12.06 32 6.12 32 0 32 C0 21.44 0 10.88 0 0 Z " fill="#576874" transform="translate(405,183)"/>
<path d="M0 0 C5.61 0 11.22 0 17 0 C17.33 1.65 17.66 3.3 18 5 C15.69 5 13.38 5 11 5 C11 13.91 11 22.82 11 32 C9.68 32 8.36 32 7 32 C7 23.09 7 14.18 7 5 C4.69 5 2.38 5 0 5 C0 3.35 0 1.7 0 0 Z " fill="#8E9DA7" transform="translate(296,183)"/>
<path d="M0 0 C-0.33 0.99 -0.66 1.98 -1 3 C-5.92662882 4.27138808 -9.53685423 4 -15 4 C-15.33 34.03 -15.66 64.06 -16 95 C-16.33 95 -16.66 95 -17 95 C-17.74336178 89.18572404 -18.14902369 83.48871527 -18.1328125 77.62890625 C-18.13413177 76.84458221 -18.13545105 76.06025818 -18.1368103 75.25216675 C-18.13872312 72.68890421 -18.13237738 70.12575148 -18.125 67.5625 C-18.12411377 66.68191925 -18.12322754 65.8013385 -18.12231445 64.89407349 C-18.09819764 44.25541581 -17.59088492 23.62911278 -17 3 C-5.99112426 -0.17117498 -5.99112426 -0.17117498 0 0 Z " fill="#89939A" transform="translate(256,59)"/>
<path d="M0 0 C0.99 0 1.98 0 3 0 C4.03033882 2.12040742 5.04902854 4.24647908 6.0625 6.375 C6.63097656 7.55835938 7.19945312 8.74171875 7.78515625 9.9609375 C8.18605469 10.96382812 8.58695312 11.96671875 9 13 C8.67 13.66 8.34 14.32 8 15 C7.64830932 16.32860925 7.31229724 17.66158328 7 19 C5.18757948 19.02687279 3.37504767 19.04633715 1.5625 19.0625 C0.55316406 19.07410156 -0.45617187 19.08570313 -1.49609375 19.09765625 C-4 19 -4 19 -5 18 C-5.33 18.66 -5.66 19.32 -6 20 C-6.66 20 -7.32 20 -8 20 C-5.83836487 13.06001352 -3.1063786 6.56882431 0 0 Z M1 10 C-1.2013866 13.80427492 -1.2013866 13.80427492 -2 18 C0.64 18 3.28 18 6 18 C4.68 15.36 3.36 12.72 2 10 C1.67 10 1.34 10 1 10 Z " fill="#67A1C7" transform="translate(353,183)"/>
<path d="M0 0 C2.59038547 2.59038547 3.71326662 5.55843976 5.125 8.875 C5.40214844 9.50019531 5.67929688 10.12539062 5.96484375 10.76953125 C7.41221722 14.14198274 8 16.26277724 8 20 C4.56294295 20.14505175 1.12666967 20.23398014 -2.3125 20.3125 C-3.28896484 20.35439453 -4.26542969 20.39628906 -5.27148438 20.43945312 C-7.93371599 20.48519594 -10.37894196 20.47280132 -13 20 C-15.71335593 17.09002408 -15.96368408 15.64158134 -16.1875 11.6875 C-16.125625 10.800625 -16.06375 9.91375 -16 9 C-15.34 8.67 -14.68 8.34 -14 8 C-13.34 10.64 -12.68 13.28 -12 16 C-5.07 16.495 -5.07 16.495 2 17 C1.34 11.39 0.68 5.78 0 0 Z " fill="#569AC5" transform="translate(155,150)"/>
<path d="M0 0 C4.29 0 8.58 0 13 0 C13 0.66 13 1.32 13 2 C9.37 2 5.74 2 2 2 C2 5.63 2 9.26 2 13 C4.64 13 7.28 13 10 13 C10 14.32 10 15.64 10 17 C7.69 16.67 5.38 16.34 3 16 C3 20.29 3 24.58 3 29 C2.01 29 1.02 29 0 29 C0 19.43 0 9.86 0 0 Z " fill="#1A3041" transform="translate(318,185)"/>
<path d="M0 0 C0 0.66 0 1.32 0 2 C-0.73637695 2.01981934 -1.47275391 2.03963867 -2.23144531 2.06005859 C-5.57132056 2.15537828 -8.91057639 2.26502996 -12.25 2.375 C-13.40886719 2.4059375 -14.56773438 2.436875 -15.76171875 2.46875 C-16.87675781 2.50742188 -17.99179688 2.54609375 -19.140625 2.5859375 C-20.68024902 2.63306885 -20.68024902 2.63306885 -22.25097656 2.68115234 C-24.99721205 2.99967664 -26.63499842 3.62489243 -29 5 C-29.680625 5.268125 -30.36125 5.53625 -31.0625 5.8125 C-33.64688835 7.39647996 -34.60781819 9.35485455 -36 12 C-37.65 11.67 -39.3 11.34 -41 11 C-41 10.01 -41 9.02 -41 8 C-41.66 7.67 -42.32 7.34 -43 7 C-43 6.34 -43 5.68 -43 5 C-39.62902617 3.50178941 -37.79557881 3 -34 3 C-34 2.34 -34 1.68 -34 1 C-22.64764338 -0.05253638 -11.39053108 -0.10313358 0 0 Z " fill="#64B1DE" transform="translate(131,140)"/>
<path d="M0 0 C2.58470302 0.98040459 3.92357065 1.90658635 5.6875 4.0625 C8.13935231 9.54997898 8.73090122 14.70331225 6.75 20.4375 C5 24 5 24 2 26 C1.67 25.01 1.34 24.02 1 23 C0.34 22.67 -0.32 22.34 -1 22 C-0.525625 21.649375 -0.05125 21.29875 0.4375 20.9375 C2.77107614 18.04386559 2.81624979 15.67500419 3 12 C2.61649027 8.19647427 2.61649027 8.19647427 1 5 C-2.00594421 3.46853622 -2.00594421 3.46853622 -5 3 C-1.25 1.875 -1.25 1.875 1 3 C0.67 2.01 0.34 1.02 0 0 Z " fill="#697B87" transform="translate(392,186)"/>
<path d="M0 0 C-0.33 2.97 -0.66 5.94 -1 9 C1.10583487 8.54939339 3.20962872 8.08924044 5.3125 7.625 C7.07013672 7.24214844 7.07013672 7.24214844 8.86328125 6.8515625 C12.12920445 6.14304469 12.12920445 6.14304469 15 4 C15 5.98 15 7.96 15 10 C4.605 11.485 4.605 11.485 -6 13 C-7 11 -7 11 -6.29296875 8.65234375 C-5.92816406 7.75644531 -5.56335938 6.86054688 -5.1875 5.9375 C-4.83042969 5.03902344 -4.47335938 4.14054688 -4.10546875 3.21484375 C-2.50088183 0 -2.50088183 0 0 0 Z " fill="#166DA4" transform="translate(93,125)"/>
<path d="M0 0 C5.28 0 10.56 0 16 0 C16 0.66 16 1.32 16 2 C13.69 2 11.38 2 9 2 C9 10.91 9 19.82 9 29 C8.34 29 7.68 29 7 29 C7 20.09 7 11.18 7 2 C4.69 2 2.38 2 0 2 C0 1.34 0 0.68 0 0 Z " fill="#072033" transform="translate(297,185)"/>
<path d="M0 0 C-2.96687001 1.64826111 -5.65626525 2.44271087 -9 3 C-9.33 3.99 -9.66 4.98 -10 6 C-10.99 6.33 -11.98 6.66 -13 7 C-13.33 7.99 -13.66 8.98 -14 10 C-14.66 10 -15.32 10 -16 10 C-15.938125 11.0828125 -15.938125 11.0828125 -15.875 12.1875 C-16.01096302 15.24666798 -16.81004784 17.20011257 -18 20 C-18.36871088 21.65919896 -18.71281674 23.3247643 -19 25 C-19.66 25 -20.32 25 -21 25 C-22.66484322 19.10901629 -21.51045567 15.69408161 -18.59375 10.37109375 C-14.13700163 3.74058821 -8.17042022 -0.46688116 0 0 Z " fill="#74BFE8" transform="translate(97,142)"/>
<path d="M0 0 C1.65 1.32 3.3 2.64 5 4 C3.46312312 7.07375376 1.71085145 10.01980715 0 13 C4.455 12.505 4.455 12.505 9 12 C9 12.66 9 13.32 9 14 C7.18757948 14.02687279 5.37504767 14.04633715 3.5625 14.0625 C2.55316406 14.07410156 1.54382813 14.08570313 0.50390625 14.09765625 C-2 14 -2 14 -3 13 C-3.33 13.66 -3.66 14.32 -4 15 C-4.66 15 -5.32 15 -6 15 C-4.36041242 9.76727367 -2.61047965 4.84803364 0 0 Z " fill="#69A5C7" transform="translate(351,188)"/>
<path d="M0 0 C2.50037734 2.17424117 3.43628586 3.73045798 4 7 C4.99 5.02 5.98 3.04 7 1 C7.99 1.33 8.98 1.66 10 2 C11 5 11 5 11 7 C11.33 7.66 11.66 8.32 12 9 C7.05 9 2.1 9 -3 9 C-2.34 8.67 -1.68 8.34 -1 8 C-0.53476937 6.10466658 -0.53476937 6.10466658 -0.375 3.9375 C-0.25125 2.638125 -0.1275 1.33875 0 0 Z " fill="#3DA8E4" transform="translate(79,159)"/>
<path d="M0 0 C0.99 0.66 1.98 1.32 3 2 C3.33 1.67 3.66 1.34 4 1 C6.18639453 0.92741054 8.37500389 0.91626217 10.5625 0.9375 C12.35880859 0.95103516 12.35880859 0.95103516 14.19140625 0.96484375 C15.11824219 0.97644531 16.04507812 0.98804688 17 1 C17 1.33 17 1.66 17 2 C15.78763672 1.95166016 15.78763672 1.95166016 14.55078125 1.90234375 C11.16004752 1.93915509 8.27722362 2.10504947 5 3 C2.5037541 5.70554259 1.20141445 8.54244096 0 12 C-1.32 12 -2.64 12 -4 12 C-3.33501617 7.61110675 -1.81242323 4.0188515 0 0 Z " fill="#83B7D8" transform="translate(344,203)"/>
<path d="M0 0 C0.99 0 1.98 0 3 0 C3 0.66 3 1.32 3 2 C3.66 2 4.32 2 5 2 C6 5 6 5 5 8 C6.37168238 10.19038423 6.37168238 10.19038423 8 12 C7.01 12 6.02 12 5 12 C3.948125 12.2784375 3.948125 12.2784375 2.875 12.5625 C-1.17935893 13.17946766 -4.9616677 12.57187712 -9 12 C-9 11.67 -9 11.34 -9 11 C-5.37 11 -1.74 11 2 11 C1.74438677 8.6568787 1.40729228 6.32156597 1 4 C0.34 3.67 -0.32 3.34 -1 3 C-0.67 2.01 -0.34 1.02 0 0 Z " fill="#0A71B4" transform="translate(129,131)"/>
<path d="M0 0 C0 1.65 0 3.3 0 5 C-2.296537 6.1482685 -3.58313167 6.11561175 -6.1328125 6.09765625 C-6.93847656 6.09443359 -7.74414062 6.09121094 -8.57421875 6.08789062 C-9.41597656 6.07951172 -10.25773437 6.07113281 -11.125 6.0625 C-11.97449219 6.05798828 -12.82398438 6.05347656 -13.69921875 6.04882812 C-15.79950909 6.03702874 -17.8997633 6.01909306 -20 6 C-20 4.35 -20 2.7 -20 1 C-19.01 1.495 -19.01 1.495 -18 2 C-18 2.66 -18 3.32 -18 4 C-16.10333474 3.91227545 -14.20761007 3.80408699 -12.3125 3.6875 C-11.25675781 3.62949219 -10.20101563 3.57148438 -9.11328125 3.51171875 C-5.95374132 2.99239663 -2.8441208 0 0 0 Z " fill="#263C4C" transform="translate(394,208)"/>
<path d="M0 0 C0.99 0 1.98 0 3 0 C2.67 1.65 2.34 3.3 2 5 C1.34 4.67 0.68 4.34 0 4 C-1.70363822 3.77377919 -3.41328701 3.59111527 -5.125 3.4375 C-6.03507812 3.35371094 -6.94515625 3.26992187 -7.8828125 3.18359375 C-8.58148438 3.12300781 -9.28015625 3.06242188 -10 3 C-9.67 5.64 -9.34 8.28 -9 11 C-7.54119891 10.85892253 -6.08296449 10.71197585 -4.625 10.5625 C-3.81289063 10.48128906 -3.00078125 10.40007812 -2.1640625 10.31640625 C0.04272805 10.10909886 0.04272805 10.10909886 2 9 C1 12 1 12 -1 13 C-2.70702735 13.06996014 -4.41668003 13.08440154 -6.125 13.0625 C-7.73375 13.041875 -9.3425 13.02125 -11 13 C-11 9.37 -11 5.74 -11 2 C-7.37 2 -3.74 2 0 2 C0 1.34 0 0.68 0 0 Z " fill="#8B9BA6" transform="translate(331,185)"/>
<path d="M0 0 C0.99 0.33 1.98 0.66 3 1 C2.34 1 1.68 1 1 1 C1.33 1.99 1.66 2.98 2 4 C0.700625 3.938125 -0.59875 3.87625 -1.9375 3.8125 C-8.53673523 3.8125 -15.02615726 5.45866532 -20 10 C-19.75 7.125 -19.75 7.125 -19 4 C-15.48633866 1.32961738 -11.45719742 1.77160952 -7.25 1.875 C-6.55261719 1.88402344 -5.85523438 1.89304687 -5.13671875 1.90234375 C-3.42433042 1.92580112 -1.71211996 1.96166896 0 2 C0 1.34 0 0.68 0 0 Z " fill="#627582" transform="translate(318,108)"/>
<path d="M0 0 C0.86512207 0.16298584 1.73024414 0.32597168 2.62158203 0.49389648 C5.83382266 0.97510582 8.8110688 1.11437593 12.0546875 1.09765625 C13.16328125 1.09443359 14.271875 1.09121094 15.4140625 1.08789062 C17.12722656 1.07532227 17.12722656 1.07532227 18.875 1.0625 C20.0403125 1.05798828 21.205625 1.05347656 22.40625 1.04882812 C25.27088645 1.03708781 28.13541633 1.0206657 31 1 C24.81306662 5.12462225 17.19959459 4.49881718 10 4 C6.55924232 3.24706066 3.29164979 2.2483006 0 1 C0 0.67 0 0.34 0 0 Z " fill="#8595A1" transform="translate(297,167)"/>
<path d="M0 0 C6.27 0 12.54 0 19 0 C19.66 1.65 20.32 3.3 21 5 C20.48695313 4.67644531 19.97390625 4.35289063 19.4453125 4.01953125 C16.17723717 2.6569631 13.40628597 2.69855831 9.875 2.6875 C8.63492188 2.67074219 7.39484375 2.65398437 6.1171875 2.63671875 C5.08851563 2.75660156 4.05984375 2.87648438 3 3 C2.34 3.99 1.68 4.98 1 6 C0.67 4.02 0.34 2.04 0 0 Z " fill="#60727E" transform="translate(154,99)"/>
<path d="M0 0 C0.94875 0.04125 1.8975 0.0825 2.875 0.125 C3.535 1.445 4.195 2.765 4.875 4.125 C3.885 3.465 2.895 2.805 1.875 2.125 C0.555 2.125 -0.765 2.125 -2.125 2.125 C-2.785 3.445 -3.445 4.765 -4.125 6.125 C-4.785 6.125 -5.445 6.125 -6.125 6.125 C-6.063125 7.1975 -6.00125 8.27 -5.9375 9.375 C-6.12947253 13.21445057 -6.40663221 14.51118481 -9.125 17.125 C-9.785 17.125 -10.445 17.125 -11.125 17.125 C-10.52157055 13.34848087 -9.42228319 10.34014596 -7.6875 6.9375 C-7.25566406 6.07769531 -6.82382813 5.21789062 -6.37890625 4.33203125 C-4.49750662 1.02053345 -3.91349851 0.15653994 0 0 Z " fill="#5B9CC6" transform="translate(118.125,72.875)"/>
<path d="M0 0 C1.65 1.65 3.3 3.3 5 5 C0.375 9.875 0.375 9.875 -3 11 C-3.33 10.01 -3.66 9.02 -4 8 C-3.34 8 -2.68 8 -2 8 C-2.33 6.35 -2.66 4.7 -3 3 C-2.01 2.67 -1.02 2.34 0 2 C0 1.34 0 0.68 0 0 Z " fill="#445A6C" transform="translate(336,155)"/>
<path d="M0 0 C1.98 0.99 1.98 0.99 4 2 C3.67 2.99 3.34 3.98 3 5 C3.66 5.33 4.32 5.66 5 6 C4.67 6.66 4.34 7.32 4 8 C5.65 8.33 7.3 8.66 9 9 C8.34 10.98 7.68 12.96 7 15 C7.66 15.33 8.32 15.66 9 16 C8.67 16.66 8.34 17.32 8 18 C8.66 18.33 9.32 18.66 10 19 C9.34 19.66 8.68 20.32 8 21 C6.66087415 17.87745057 5.32969342 14.75157642 4 11.625 C3.6184375 10.73554688 3.236875 9.84609375 2.84375 8.9296875 C2.30234375 7.65351563 2.30234375 7.65351563 1.75 6.3515625 C1.41484375 5.56604004 1.0796875 4.78051758 0.734375 3.97119141 C0 2 0 2 0 0 Z " fill="#495C6C" transform="translate(165,128)"/>
<path d="M0 0 C6.27 0 12.54 0 19 0 C19 0.33 19 0.66 19 1 C13.06 1.33 7.12 1.66 1 2 C0.87625 3.4025 0.7525 4.805 0.625 6.25 C0.32984478 9.59509249 -0.15006148 12.15587683 -2 15 C-2.99 15.33 -3.98 15.66 -5 16 C-4.73863447 14.64397415 -4.46527857 13.29025908 -4.1875 11.9375 C-4.03667969 11.18339844 -3.88585937 10.42929688 -3.73046875 9.65234375 C-2.81459058 6.32677543 -1.35877821 3.17048249 0 0 Z " fill="#B7C4CD" transform="translate(208,99)"/>
<path d="M0 0 C0.87840996 3.09720845 0.99435406 4.90645403 0 8 C-0.66 8 -1.32 8 -2 8 C-2 8.66 -2 9.32 -2 10 C-0.63875 9.505 -0.63875 9.505 0.75 9 C6.06183796 7.44478146 11.52020695 7.83803567 17 8 C17.33 7.34 17.66 6.68 18 6 C18 6.99 18 7.98 18 9 C7.605 10.485 7.605 10.485 -3 12 C-4 10 -4 10 -3.22265625 7.6171875 C-2.83980469 6.71226562 -2.45695312 5.80734375 -2.0625 4.875 C-1.68222656 3.96492187 -1.30195312 3.05484375 -0.91015625 2.1171875 C-0.60980469 1.41851562 -0.30945313 0.71984375 0 0 Z " fill="#8FBCD4" transform="translate(90,126)"/>
<path d="M0 0 C5.61 0 11.22 0 17 0 C17.33 0.66 17.66 1.32 18 2 C17.67 2.66 17.34 3.32 17 4 C12.38 4 7.76 4 3 4 C3 3.34 3 2.68 3 2 C2.01 1.34 1.02 0.68 0 0 Z " fill="#6C7C87" transform="translate(406,184)"/>
<path d="M0 0 C0.99 0.33 1.98 0.66 3 1 C3.33 3.31 3.66 5.62 4 8 C3.34 7.67 2.68 7.34 2 7 C-0.37123246 6.76970044 -2.74741943 6.58880058 -5.125 6.4375 C-6.40632813 6.35371094 -7.68765625 6.26992187 -9.0078125 6.18359375 C-10.48894531 6.09271484 -10.48894531 6.09271484 -12 6 C-12.33 6.99 -12.66 7.98 -13 9 C-13.66 8.67 -14.32 8.34 -15 8 C-15 7.34 -15 6.68 -15 6 C-14.34 6 -13.68 6 -13 6 C-12.67 5.01 -12.34 4.02 -12 3 C-11.67 3.33 -11.34 3.66 -11 4 C-9.15108054 4.23363881 -7.29511969 4.41303635 -5.4375 4.5625 C-3.91962891 4.68818359 -3.91962891 4.68818359 -2.37109375 4.81640625 C-1.19740234 4.90728516 -1.19740234 4.90728516 0 5 C-0.2784375 4.0409375 -0.2784375 4.0409375 -0.5625 3.0625 C-0.706875 2.381875 -0.85125 1.70125 -1 1 C-0.67 0.67 -0.34 0.34 0 0 Z " fill="#3785AF" transform="translate(360,197)"/>
<path d="M0 0 C3.81287042 1.44626119 5.32707177 3.30194812 7 7 C6.6875 9.3125 6.6875 9.3125 6 11 C6 10.01 6 9.02 6 8 C5.34 8 4.68 8 4 8 C3.67 9.32 3.34 10.64 3 12 C2.79375 10.88625 2.5875 9.7725 2.375 8.625 C1.38371699 4.73400805 1.38371699 4.73400805 -2.125 3.5625 C-3.07375 3.376875 -4.0225 3.19125 -5 3 C-1.25 1.875 -1.25 1.875 1 3 C0.67 2.01 0.34 1.02 0 0 Z " fill="#7E8F99" transform="translate(392,186)"/>
<path d="M0 0 C0.92232422 0.63228516 0.92232422 0.63228516 1.86328125 1.27734375 C3.07564453 2.09912109 3.07564453 2.09912109 4.3125 2.9375 C5.11300781 3.48277344 5.91351563 4.02804688 6.73828125 4.58984375 C10.34236327 6.83694843 13.52795167 7.21994896 17.6875 7.5625 C18.68136719 7.64628906 19.67523438 7.73007813 20.69921875 7.81640625 C21.83810547 7.90728516 21.83810547 7.90728516 23 8 C23 8.33 23 8.66 23 9 C18.05 9 13.1 9 8 9 C7.67 9.66 7.34 10.32 7 11 C5.125 10.375 5.125 10.375 3 9 C1.8125 6.0625 1.8125 6.0625 1 3 C0.67 2.01 0.34 1.02 0 0 Z " fill="#768796" transform="translate(297,147)"/>
<path d="M0 0 C1.62463842 -0.05395478 3.24978541 -0.09277195 4.875 -0.125 C6.23238281 -0.15980469 6.23238281 -0.15980469 7.6171875 -0.1953125 C10 0 10 0 12 2 C10.98679687 2.09087891 10.98679687 2.09087891 9.953125 2.18359375 C9.06109375 2.26738281 8.1690625 2.35117188 7.25 2.4375 C6.36828125 2.51871094 5.4865625 2.59992188 4.578125 2.68359375 C2.28490932 2.96503386 0.18927651 3.26369624 -2 4 C-3.16666667 5.91666667 -3.16666667 5.91666667 -4 8 C-4.66 8.66 -5.32 9.32 -6 10 C-6 8.35 -6 6.7 -6 5 C-5.34 5 -4.68 5 -4 5 C-3.67 4.01 -3.34 3.02 -3 2 C-2.01 2 -1.02 2 0 2 C0 1.34 0 0.68 0 0 Z " fill="#7A8A95" transform="translate(383,114)"/>
<path d="M0 0 C-0.33 0.99 -0.66 1.98 -1 3 C-5.70345575 4.21379503 -10.17430687 4.07202527 -15 4 C-15.33 6.97 -15.66 9.94 -16 13 C-16.33 13 -16.66 13 -17 13 C-17 9.7 -17 6.4 -17 3 C-11.22680752 1.30200221 -6.04006313 -0.17257323 0 0 Z " fill="#73838D" transform="translate(256,59)"/>
<path d="M0 0 C2.41696872 -0.05411124 4.83271787 -0.09372278 7.25 -0.125 C7.93191406 -0.14175781 8.61382812 -0.15851563 9.31640625 -0.17578125 C13.0608235 -0.21213482 15.82352727 -0.07944349 19 2 C19 2.66 19 3.32 19 4 C18.071875 3.835 17.14375 3.67 16.1875 3.5 C11.14266379 2.76299718 6.08564289 2.91723185 1 3 C0.67 2.01 0.34 1.02 0 0 Z " fill="#1D323F" transform="translate(374,185)"/>
<path d="M0 0 C0.66 0.33 1.32 0.66 2 1 C1.67 1.99 1.34 2.98 1 4 C0.01 4 -0.98 4 -2 4 C-1.7525 4.5775 -1.505 5.155 -1.25 5.75 C-1.12625 6.86375 -1.12625 6.86375 -1 8 C-2.8125 10.25 -2.8125 10.25 -5 12 C-5.66 12 -6.32 12 -7 12 C-7.12375 12.78375 -7.2475 13.5675 -7.375 14.375 C-8 17 -8 17 -10 19 C-9.6205183 11.78984773 -5.25087946 4.82640717 0 0 Z " fill="#778997" transform="translate(288,105)"/>
<path d="M0 0 C0.99 0.33 1.98 0.66 3 1 C4.25 3.9375 4.25 3.9375 5 7 C4.67 7.66 4.34 8.32 4 9 C4.66 9.33 5.32 9.66 6 10 C5.67 10.66 5.34 11.32 5 12 C5.99 12.33 6.98 12.66 8 13 C7.67 14.32 7.34 15.64 7 17 C4.66911211 14.12145363 3.16775203 11.38015172 1.8125 7.9375 C1.46832031 7.08027344 1.12414062 6.22304687 0.76953125 5.33984375 C0 3 0 3 0 0 Z " fill="#5F9DC3" transform="translate(123,122)"/>
<path d="M0 0 C4.95 0 9.9 0 15 0 C15 0.33 15 0.66 15 1 C9.06 1.495 9.06 1.495 3 2 C2.87625 3.464375 2.7525 4.92875 2.625 6.4375 C2.4140625 8.93359375 2.4140625 8.93359375 2 11 C1.01 11.495 1.01 11.495 0 12 C0 8.04 0 4.08 0 0 Z " fill="#0A1F2D" transform="translate(406,185)"/>
<path d="M0 0 C1.485 0.99 1.485 0.99 3 2 C3.36328125 3.875 3.36328125 3.875 3.3125 6 C3.30863281 6.70125 3.30476563 7.4025 3.30078125 8.125 C3 10 3 10 1 12 C1 11.34 1 10.68 1 10 C0.34 10 -0.32 10 -1 10 C-1.125 3.375 -1.125 3.375 0 0 Z " fill="#4A5F6D" transform="translate(334,186)"/>
<path d="M0 0 C2.47186455 2.96346786 3.66248361 5.54041689 4.6875 9.25 C4.93886719 10.14203125 5.19023437 11.0340625 5.44921875 11.953125 C5.72185547 12.96632812 5.72185547 12.96632812 6 14 C3 12.625 3 12.625 0 10 C-0.5412406 6.6145931 -0.35042185 3.40038985 0 0 Z " fill="#3C8ABC" transform="translate(147,132)"/>
<path d="M0 0 C4.75 0.75 4.75 0.75 7 3 C7.56520003 5.65537372 7.73788198 8.29144713 8 11 C7.34 10.01 6.68 9.02 6 8 C5.34 7.34 4.68 6.68 4 6 C3.34 6 2.68 6 2 6 C2 5.34 2 4.68 2 4 C1.01 3.67 0.02 3.34 -1 3 C-0.67 2.01 -0.34 1.02 0 0 Z " fill="#1770AB" transform="translate(116,74)"/>
<path d="M0 0 C5.28 0 10.56 0 16 0 C16 0.66 16 1.32 16 2 C14.329375 2.2165625 14.329375 2.2165625 12.625 2.4375 C9.17857953 2.78372035 9.17857953 2.78372035 7 4 C7 3.34 7 2.68 7 2 C4.69 2 2.38 2 0 2 C0 1.34 0 0.68 0 0 Z " fill="#1B3142" transform="translate(297,185)"/>
<path d="M0 0 C2.07901925 1.52213909 2.8023091 2.91202275 3.75 5.28125 C2.88375 4.91 2.0175 4.53875 1.125 4.15625 C-2.86472241 3.12187752 -4.46748815 3.88336519 -8.25 5.28125 C-10.4296875 4.84765625 -10.4296875 4.84765625 -12.25 4.28125 C-10.6774835 3.38695626 -9.09146259 2.51637573 -7.5 1.65625 C-6.61828125 1.16898438 -5.7365625 0.68171875 -4.828125 0.1796875 C-2.25 -0.71875 -2.25 -0.71875 0 0 Z " fill="#7B8C97" transform="translate(332.25,149.71875)"/>
<path d="M0 0 C0.5625 1.9375 0.5625 1.9375 1 4 C0.67 4.33 0.34 4.66 0 5 C-0.23287008 6.68183948 -0.41264166 8.3712416 -0.5625 10.0625 C-0.68818359 11.44115234 -0.68818359 11.44115234 -0.81640625 12.84765625 C-0.87699219 13.55792969 -0.93757812 14.26820313 -1 15 C-1.99 15.33 -2.98 15.66 -4 16 C-4.66 16.99 -5.32 17.98 -6 19 C-5.31462073 15.13760226 -4.25516907 11.5272467 -3 7.8125 C-2.649375 6.76707031 -2.29875 5.72164062 -1.9375 4.64453125 C-1 2 -1 2 0 0 Z " fill="#95A2AB" transform="translate(199,123)"/>
<path d="M0 0 C1.305239 3.91571701 0.32239848 5.03892997 -1.4375 8.6875 C-1.91058594 9.68136719 -2.38367188 10.67523438 -2.87109375 11.69921875 C-3.42990234 12.83810547 -3.42990234 12.83810547 -4 14 C-4.66 13.34 -5.32 12.68 -6 12 C-6 10.68 -6 9.36 -6 8 C-5.01 8 -4.02 8 -3 8 C-3.061875 7.05125 -3.12375 6.1025 -3.1875 5.125 C-3.125625 4.09375 -3.06375 3.0625 -3 2 C-2.01 1.34 -1.02 0.68 0 0 Z " fill="#6D7E8A" transform="translate(214,132)"/>
<path d="M0 0 C2.0245738 1.93254772 3.42105792 3.63158688 5 6 C5 6.99 5 7.98 5 9 C2.6875 8.875 2.6875 8.875 0 8 C-1.8125 4.9375 -1.8125 4.9375 -3 2 C-2.01 2 -1.02 2 0 2 C0 1.34 0 0.68 0 0 Z " fill="#67747D" transform="translate(332,206)"/>
<path d="M0 0 C-2.96687001 1.64826111 -5.65626525 2.44271087 -9 3 C-9.33 3.99 -9.66 4.98 -10 6 C-10.99 6.33 -11.98 6.66 -13 7 C-13.33 7.99 -13.66 8.98 -14 10 C-14.99 10 -15.98 10 -17 10 C-15.16586358 5.3312891 -11.90594752 2.95297376 -7.5 0.75 C-4.86789896 -0.03963031 -2.7321625 -0.15612357 0 0 Z " fill="#9BCDE6" transform="translate(97,142)"/>
<path d="M0 0 C0.99 0 1.98 0 3 0 C3.33 2.31 3.66 4.62 4 7 C2.68 7 1.36 7 0 7 C-0.33 7.99 -0.66 8.98 -1 10 C-1.125 3.375 -1.125 3.375 0 0 Z " fill="#5A96BA" transform="translate(353,183)"/>
<path d="M0 0 C0.33 0.66 0.66 1.32 1 2 C1.66 2 2.32 2 3 2 C2.54636829 3.58468677 2.08688548 5.16769924 1.625 6.75 C1.36976563 7.63171875 1.11453125 8.5134375 0.8515625 9.421875 C0.0790066 11.76080572 -0.83625676 13.83442562 -2 16 C-4 13 -4 13 -4 11 C-3.01 11 -2.02 11 -1 11 C-1 9.02 -1 7.04 -1 5 C-0.34 5 0.32 5 1 5 C0.67 3.35 0.34 1.7 0 0 Z " fill="#6C7D8B" transform="translate(206,145)"/>
<path d="M0 0 C1.65 1.32 3.3 2.64 5 4 C3.93453047 6.13093906 2.70840281 7.36587557 1 9 C1 8.34 1 7.68 1 7 C-0.32 7.33 -1.64 7.66 -3 8 C-1.125 2.25 -1.125 2.25 0 0 Z " fill="#89B8D2" transform="translate(351,188)"/>
<path d="M0 0 C2.52948613 2.19955316 3.36684609 3.72870478 4 7 C4.33 7.66 4.66 8.32 5 9 C2.36 9 -0.28 9 -3 9 C-2.34 8.67 -1.68 8.34 -1 8 C-0.53476937 6.10466658 -0.53476937 6.10466658 -0.375 3.9375 C-0.25125 2.638125 -0.1275 1.33875 0 0 Z " fill="#4EB7EE" transform="translate(79,159)"/>
<path d="M0 0 C6.64615385 2.46153846 6.64615385 2.46153846 8.4375 5.1875 C8.623125 5.785625 8.80875 6.38375 9 7 C6.03 6.505 6.03 6.505 3 6 C3 5.34 3 4.68 3 4 C2.01 4 1.02 4 0 4 C0 2.68 0 1.36 0 0 Z " fill="#435969" transform="translate(330,102)"/>
<path d="M0 0 C2.09797355 2.09797355 2.96787972 3.75609656 4.1875 6.4375 C4.55230469 7.21996094 4.91710937 8.00242188 5.29296875 8.80859375 C6 11 6 11 5 14 C1.77307451 11.84871634 1.58671036 11.63210677 0.8125 8.125 C0.65394531 7.44695312 0.49539062 6.76890625 0.33203125 6.0703125 C0 4 0 4 0 0 Z " fill="#7DB3D1" transform="translate(155,150)"/>
<path d="M0 0 C0 0.66 0 1.32 0 2 C-1.65 2 -3.3 2 -5 2 C-4.67 2.99 -4.34 3.98 -4 5 C-4.33 5.66 -4.66 6.32 -5 7 C-6.98 6.34 -8.96 5.68 -11 5 C-11 4.34 -11 3.68 -11 3 C-9.54293274 2.49632243 -8.08429904 1.99717444 -6.625 1.5 C-5.81289062 1.2215625 -5.00078125 0.943125 -4.1640625 0.65625 C-2 0 -2 0 0 0 Z " fill="#3F9AD1" transform="translate(99,142)"/>
<path d="M0 0 C3.53600465 1.91135386 5.78972846 3.62642766 8 7 C7.67 7.66 7.34 8.32 7 9 C6.38125 8.67 5.7625 8.34 5.125 8 C3.08981656 6.85806765 3.08981656 6.85806765 1 7 C0.67 4.69 0.34 2.38 0 0 Z " fill="#607180" transform="translate(410,104)"/>
<path d="M0 0 C1 2 1 2 0.22265625 4.3828125 C-0.16019531 5.28773437 -0.54304688 6.19265625 -0.9375 7.125 C-1.31777344 8.03507812 -1.69804688 8.94515625 -2.08984375 9.8828125 C-2.39019531 10.58148438 -2.69054687 11.28015625 -3 12 C-4.94566951 8.52452927 -5.07637127 6.87493656 -4 3 C-3.34 3 -2.68 3 -2 3 C-2 2.34 -2 1.68 -2 1 C-1.34 0.67 -0.68 0.34 0 0 Z " fill="#5D9DC4" transform="translate(115,113)"/>
<path d="M0 0 C0.66 0 1.32 0 2 0 C2.38922918 1.28745036 2.76098036 2.58019597 3.125 3.875 C3.33382813 4.59429687 3.54265625 5.31359375 3.7578125 6.0546875 C3.83773438 6.69664062 3.91765625 7.33859375 4 8 C3.34 8.66 2.68 9.32 2 10 C1.34 10 0.68 10 0 10 C0 6.7 0 3.4 0 0 Z " fill="#172D40" transform="translate(396,194)"/>
<path d="M0 0 C1.90747183 2.86120775 3.00353706 5.35254993 4.1875 8.5625 C4.55230469 9.53316406 4.91710937 10.50382813 5.29296875 11.50390625 C6 14 6 14 5 16 C0.82167521 10.87818251 0.25786427 6.52396607 0 0 Z " fill="#798895" transform="translate(182,123)"/>
<path d="M0 0 C0.6875 2.0625 0.6875 2.0625 1 4 C-4.53846154 4.36923077 -4.53846154 4.36923077 -6.875 2.5 C-7.24625 2.005 -7.6175 1.51 -8 1 C-3.375 -1.125 -3.375 -1.125 0 0 Z " fill="#3C5064" transform="translate(253,164)"/>
<path d="M0 0 C1.5625 1.75 1.5625 1.75 3 4 C2.8125 6.1875 2.8125 6.1875 2 8 C1.01 8.495 1.01 8.495 0 9 C-2 3.25 -2 3.25 -2 1 C-1.34 0.67 -0.68 0.34 0 0 Z " fill="#0D6EAF" transform="translate(140,119)"/>
<path d="M0 0 C1.07174763 3.65188082 0.76411467 6.26432828 0 10 C-0.99 10 -1.98 10 -3 10 C-3.33 11.32 -3.66 12.64 -4 14 C-4.33 13.34 -4.66 12.68 -5 12 C-4.26821134 9.92803369 -3.44100997 7.8891448 -2.5625 5.875 C-2.08941406 4.77929688 -1.61632812 3.68359375 -1.12890625 2.5546875 C-0.75636719 1.71164063 -0.38382812 0.86859375 0 0 Z " fill="#76B0D2" transform="translate(100,103)"/>
<path d="M0 0 C4.62 0 9.24 0 14 0 C13.67 1.98 13.34 3.96 13 6 C12.34 5.34 11.68 4.68 11 4 C11 3.01 11 2.02 11 1 C7.37 1 3.74 1 0 1 C0 0.67 0 0.34 0 0 Z " fill="#374E5D" transform="translate(213,100)"/>
<path d="M0 0 C2.95183101 2.95183101 3.08663988 5.95511947 4 10 C0.125 8.125 0.125 8.125 -1 7 C-1.125 4 -1.125 4 -1 1 C-0.67 0.67 -0.34 0.34 0 0 Z " fill="#3783B4" transform="translate(140,158)"/>
<path d="M0 0 C1.65 0 3.3 0 5 0 C5 1.65 5 3.3 5 5 C5.99 5.33 6.98 5.66 8 6 C7.67 7.65 7.34 9.3 7 11 C4.81024227 7.71536341 4.00193437 4.79303725 3 1 C2.01 1.33 1.02 1.66 0 2 C0 1.34 0 0.68 0 0 Z " fill="#64A8CF" transform="translate(116,111)"/>
<path d="M0 0 C0.94875 0.04125 1.8975 0.0825 2.875 0.125 C3.535 1.445 4.195 2.765 4.875 4.125 C3.885 3.465 2.895 2.805 1.875 2.125 C0.555 2.125 -0.765 2.125 -2.125 2.125 C-2.393125 2.764375 -2.66125 3.40375 -2.9375 4.0625 C-4.125 6.125 -4.125 6.125 -7.125 7.125 C-4.56730769 0.18269231 -4.56730769 0.18269231 0 0 Z " fill="#97C4DB" transform="translate(118.125,72.875)"/>
<path d="M0 0 C0.99 0 1.98 0 3 0 C2.67 1.65 2.34 3.3 2 5 C1.34 4.67 0.68 4.34 0 4 C-1.70363822 3.77377919 -3.41328701 3.59111527 -5.125 3.4375 C-6.03507812 3.35371094 -6.94515625 3.26992187 -7.8828125 3.18359375 C-8.58148438 3.12300781 -9.28015625 3.06242188 -10 3 C-10 2.67 -10 2.34 -10 2 C-6.7 2 -3.4 2 0 2 C0 1.34 0 0.68 0 0 Z " fill="#6F7F8B" transform="translate(331,185)"/>
<path d="M0 0 C5.75 0.875 5.75 0.875 8 2 C8 3.98 8 5.96 8 8 C5.33333333 5.33333333 2.66666667 2.66666667 0 0 Z " fill="#677986" transform="translate(320,112)"/>
<path d="M0 0 C0.99 0 1.98 0 3 0 C2.39009109 3.55780196 1.4216319 6.6828589 0 10 C-0.90305236 7.29084291 -1.63723355 4.82957829 -2 2 C-1.34 1.34 -0.68 0.68 0 0 Z " fill="#728493" transform="translate(221,109)"/>
<path d="M0 0 C0.66 0 1.32 0 2 0 C2.88492145 2.47778006 3.11637742 3.66056586 2.25 6.1875 C1 8 1 8 -2 9 C-1.34 6.03 -0.68 3.06 0 0 Z " fill="#70808C" transform="translate(205,106)"/>
<path d="M0 0 C0.33 0.66 0.66 1.32 1 2 C-0.25 5.5625 -0.25 5.5625 -2 9 C-2.99 9.33 -3.98 9.66 -5 10 C-4.55090939 8.51800098 -4.09043436 7.03944764 -3.625 5.5625 C-3.36976562 4.73878906 -3.11453125 3.91507812 -2.8515625 3.06640625 C-2 1 -2 1 0 0 Z " fill="#5A99C2" transform="translate(106,93)"/>
<path d="M0 0 C0.99 0 1.98 0 3 0 C3.625 2.3125 3.625 2.3125 4 5 C3.01 6.485 3.01 6.485 2 8 C1.34 7.67 0.68 7.34 0 7 C-1.26229508 2.52459016 -1.26229508 2.52459016 0 0 Z " fill="#2982BB" transform="translate(106,90)"/>
<path d="M0 0 C0.66 0.33 1.32 0.66 2 1 C3.70363822 1.22622081 5.41328701 1.40888473 7.125 1.5625 C8.03507812 1.64628906 8.94515625 1.73007813 9.8828125 1.81640625 C10.58148438 1.87699219 11.28015625 1.93757812 12 2 C12 2.33 12 2.66 12 3 C8.37 3 4.74 3 1 3 C0.67 3.99 0.34 4.98 0 6 C-0.66 5.67 -1.32 5.34 -2 5 C-2 4.34 -2 3.68 -2 3 C-1.34 3 -0.68 3 0 3 C0 2.01 0 1.02 0 0 Z " fill="#1E6998" transform="translate(347,200)"/>
<path d="M0 0 C2.5625 2.25 2.5625 2.25 5 5 C4.8125 7.3125 4.8125 7.3125 4 9 C2.01388388 7.01388388 1.08545288 5.55856751 0 3 C0 2.01 0 1.02 0 0 Z " fill="#062136" transform="translate(178,154)"/>
<path d="M0 0 C0 0.33 0 0.66 0 1 C-9.41002278 3.11161731 -9.41002278 3.11161731 -14 4 C-9.3037101 -1.02017197 -6.70998562 -1.13943152 0 0 Z " fill="#288DCC" transform="translate(109,155)"/>
<path d="M0 0 C2.27795022 2.27795022 3.05219877 3.93787293 4 7 C3.625 9.3125 3.625 9.3125 3 11 C3 10.34 3 9.68 3 9 C2.34 9 1.68 9 1 9 C-0.4783226 6.04335481 -0.06032783 3.25770263 0 0 Z " fill="#73848F" transform="translate(177,110)"/>
<path d="M0 0 C0.99 0.33 1.98 0.66 3 1 C2.67 2.98 2.34 4.96 2 7 C0.68 6.34 -0.64 5.68 -2 5 C-2 4.01 -2 3.02 -2 2 C-1.34 2 -0.68 2 0 2 C0 1.34 0 0.68 0 0 Z " fill="#329FE3" transform="translate(90,160)"/>
<path d="M0 0 C3.8665284 3.222107 4.88059018 6.14922412 6 11 C1.9957657 7.50912907 0.37328935 5.35048061 0 0 Z " fill="#788895" transform="translate(339,109)"/>
<path d="M0 0 C0.99 0.33 1.98 0.66 3 1 C3.33 2.65 3.66 4.3 4 6 C3.01 6.495 3.01 6.495 2 7 C2 6.34 2 5.68 2 5 C1.01 5 0.02 5 -1 5 C-0.67 3.35 -0.34 1.7 0 0 Z " fill="#334554" transform="translate(329,203)"/>
<path d="M0 0 C1.5 1.125 1.5 1.125 3 3 C3.1875 6.1875 3.1875 6.1875 3 9 C2.01 8.67 1.02 8.34 0 8 C0 5.36 0 2.72 0 0 Z " fill="#0E6EB1" transform="translate(144,129)"/>
<path d="M0 0 C0.66 0.99 1.32 1.98 2 3 C0.02 3.99 0.02 3.99 -2 5 C-2 5.99 -2 6.98 -2 8 C-2.66 8 -3.32 8 -4 8 C-3.67 6.35 -3.34 4.7 -3 3 C-2.34 3 -1.68 3 -1 3 C-0.67 2.01 -0.34 1.02 0 0 Z " fill="#106FB1" transform="translate(105,99)"/>
<path d="M0 0 C0.99 0.33 1.98 0.66 3 1 C3.33 2.98 3.66 4.96 4 7 C3.67 6.01 3.34 5.02 3 4 C2.34 4 1.68 4 1 4 C0.67 5.32 0.34 6.64 0 8 C-0.38063221 5.6739143 -0.71269945 3.33944736 -1 1 C-0.67 0.67 -0.34 0.34 0 0 Z " fill="#4E6371" transform="translate(395,190)"/>
<path d="M0 0 C0.33 1.32 0.66 2.64 1 4 C1.66 4 2.32 4 3 4 C3 4.66 3 5.32 3 6 C-2.75 4.375 -2.75 4.375 -5 1 C-3.68 1 -2.36 1 -1 1 C-0.67 0.67 -0.34 0.34 0 0 Z " fill="#5D707E" transform="translate(294,161)"/>
<path d="M0 0 C2.56616632 3.84924948 2.55097676 6.4349304 3 11 C0.9375 9.4375 0.9375 9.4375 -1 7 C-0.75 3.25 -0.75 3.25 0 0 Z " fill="#0B6CAF" transform="translate(154,151)"/>
<path d="M0 0 C2.50298434 2.93828597 3.46930939 5.17902761 4 9 C1.525 8.01 1.525 8.01 -1 7 C-0.67 4.69 -0.34 2.38 0 0 Z " fill="#7EB4D3" transform="translate(143,123)"/>
<path d="M0 0 C-0.33 1.65 -0.66 3.3 -1 5 C-2.32 5 -3.64 5 -5 5 C-5 4.01 -5 3.02 -5 2 C-2 0 -2 0 0 0 Z " fill="#6D9EB9" transform="translate(345,210)"/>
<path d="M0 0 C2.29013653 3.4352048 2.17842973 4.985331 2 9 C1.34 9 0.68 9 0 9 C-1.125 2.25 -1.125 2.25 0 0 Z " fill="#80C7F2" transform="translate(76,158)"/>
<path d="M0 0 C1.485 0.99 1.485 0.99 3 2 C2.67 2.66 2.34 3.32 2 4 C2.99 4.33 3.98 4.66 5 5 C4.67 6.32 4.34 7.64 4 9 C1.49701566 6.06171403 0.53069061 3.82097239 0 0 Z " fill="#6DA9CE" transform="translate(126,130)"/>
<path d="M0 0 C0.66 0.66 1.32 1.32 2 2 C1.625 4.125 1.625 4.125 1 6 C-0.32 5.67 -1.64 5.34 -3 5 C-1.125 1.125 -1.125 1.125 0 0 Z " fill="#03223D" transform="translate(172,131)"/>
<path d="M0 0 C1.32 0 2.64 0 4 0 C3.25 4.75 3.25 4.75 1 7 C0.67 4.69 0.34 2.38 0 0 Z " fill="#65A2CB" transform="translate(107,125)"/>
<path d="M0 0 C0.99 0.33 1.98 0.66 3 1 C1.70700306 3.88437779 0.34058637 5.87219421 -2 8 C-1.47731534 5.23723823 -0.89130413 2.6739124 0 0 Z " fill="#126DAC" transform="translate(97,113)"/>
<path d="M0 0 C2.50298434 2.93828597 3.46930939 5.17902761 4 9 C3.34 8.34 2.68 7.68 2 7 C1.01 7.495 1.01 7.495 0 8 C0 5.36 0 2.72 0 0 Z " fill="#83B9D9" transform="translate(129,91)"/>
<path d="M0 0 C0.99 0.33 1.98 0.66 3 1 C1 4 1 4 -2 6 C-2.66 4.35 -3.32 2.7 -4 1 C-2.68 1.33 -1.36 1.66 0 2 C0 1.34 0 0.68 0 0 Z " fill="#8194A1" transform="translate(329,200)"/>
<path d="M0 0 C2 3 2 3 2 5 C2.99 4.67 3.98 4.34 5 4 C4.67 4.99 4.34 5.98 4 7 C2.68 7 1.36 7 0 7 C0 4.69 0 2.38 0 0 Z " fill="#728691" transform="translate(188,139)"/>
<path d="M0 0 C2.50298434 2.93828597 3.46930939 5.17902761 4 9 C3.01 8.67 2.02 8.34 1 8 C0.67 5.36 0.34 2.72 0 0 Z " fill="#88BAD5" transform="translate(147,132)"/>
<path d="M0 0 C1.98 0.99 1.98 0.99 4 2 C3.67 2.99 3.34 3.98 3 5 C3.66 5.33 4.32 5.66 5 6 C4.01 7.485 4.01 7.485 3 9 C2.01 6.03 1.02 3.06 0 0 Z " fill="#758390" transform="translate(165,128)"/>
<path d="M0 0 C0.66 0 1.32 0 2 0 C2 0.66 2 1.32 2 2 C2.99 2 3.98 2 5 2 C5.33 2.99 5.66 3.98 6 5 C5.34 5.66 4.68 6.32 4 7 C0 1.125 0 1.125 0 0 Z " fill="#385263" transform="translate(401,120)"/>
<path d="M0 0 C1.65 0.33 3.3 0.66 5 1 C3.35 2.65 1.7 4.3 0 6 C-1.125 2.25 -1.125 2.25 0 0 Z " fill="#576D7B" transform="translate(299,112)"/>
</svg>
